<svg width="76" height="46" viewBox="0 0 76 46" fill="none" xmlns="http://www.w3.org/2000/svg">
<g clip-path="url(#clip0_42_40)">
<path d="M70.0595 0.91603L68.3711 2.60051C68.9492 2.95357 69.5101 3.27201 70.042 3.63087C71.2448 4.45286 72.17 5.5295 72.8812 6.79719C73.0256 7.0519 73.1532 7.3124 73.3086 7.56132C73.4244 7.74651 73.3784 7.8681 73.2278 8.0128C72.8757 8.34855 72.5284 8.68431 72.2049 9.04316C72.1296 9.13 72.1003 9.32105 72.1352 9.43099C72.4761 10.4209 72.7655 11.4222 72.8582 12.47C72.9161 13.1415 72.9565 13.8187 72.9851 14.4902C72.9851 14.6117 72.9217 14.768 72.8345 14.8549L56.3501 31.3754C56.1303 31.5954 55.9454 31.4854 55.7545 31.4449C54.1702 31.1149 52.7363 30.4551 51.47 29.4362C51.4469 29.4189 51.4295 29.3842 51.3948 29.3379L52.6206 28.157C52.1176 27.555 51.6493 27.0283 51.2214 26.4726C50.6431 25.7142 50.1864 24.8807 49.8857 23.9719C49.6487 23.2483 49.4463 22.5131 49.2555 21.778C49.2208 21.6564 49.2959 21.4538 49.3942 21.3555C49.8684 20.8518 50.3772 20.3772 50.8513 19.8735C50.9439 19.7752 51.0075 19.6073 51.0017 19.4741C50.9496 18.5074 50.805 17.5408 50.8282 16.5741C50.8686 14.7854 51.1288 13.0257 51.6608 11.3065C52.0135 10.1719 52.4356 9.06634 52.9907 8.0186C53.5574 6.94775 54.2165 5.93471 55.0086 5.01436C56.0263 3.8335 57.1653 2.80894 58.4953 1.99274C59.802 1.19391 61.2071 0.644008 62.7046 0.325638C63.7743 0.0998263 64.8498 -0.0332875 65.9368 0.00726787C67.3419 0.0593407 68.718 0.302464 70.0595 0.898719V0.91603ZM63.6991 7.09245C63.6991 7.09245 63.6529 7.04031 63.6297 7.01141C63.358 7.10977 63.0804 7.19081 62.826 7.3182C61.2765 8.08805 60.3513 9.40788 59.6632 10.9302C59.4782 11.3354 59.3105 11.729 58.9694 12.0417C58.4895 12.4758 58.0442 12.9504 57.5875 13.4135C57.5007 13.5003 57.4198 13.6219 57.3966 13.7377L56.8242 16.4178C56.616 17.4656 56.6392 18.5306 56.7664 19.5783C56.9283 20.846 57.3099 22.0385 58.2986 22.9936L56.9572 24.3018C57.547 24.4986 58.0732 24.7649 58.6224 24.8344C60.0796 25.0138 61.3227 24.487 62.375 23.4914C63.2019 22.7042 63.7743 21.7433 64.2195 20.6955C64.8556 19.2021 65.214 17.645 65.2777 16.0184C65.295 15.59 65.3471 15.1848 65.7402 14.9012C65.9657 14.7333 66.1276 14.4728 66.3531 14.305C66.7521 14.0098 66.862 13.6219 66.7925 13.1589C66.7752 13.0431 66.7405 12.9273 66.7289 12.8115C66.6596 11.9722 66.4456 11.1733 66.0235 10.444C65.3471 9.2747 64.3641 8.58009 62.9591 8.60326H62.1206L63.7049 7.09245H63.6991ZM7.54905 12.0714L8.19665 11.4867L5.70455 7.04694L7.25997 5.52455C7.364 5.42612 7.54905 5.38564 7.70516 5.36826L9.97749 5.1599L12.753 4.84153C13.0478 4.81256 13.3485 4.76048 13.4757 5.17728C13.5509 5.42619 13.7359 5.64614 13.9151 5.95872C13.7937 6.05135 13.6781 6.14397 13.5509 6.23081C13.2444 6.43917 13.2675 6.66498 13.4352 6.96597C13.8168 7.65479 14.158 8.36684 14.5222 9.06724L16.3957 12.6735L18.6738 9.48397L22.2298 4.51164C22.3454 4.34956 22.7039 4.33797 22.9526 4.309L25.6007 4.03112C25.6932 4.01953 25.7916 3.94428 25.8667 3.86903L27.1504 2.58397C27.3296 2.39871 27.5204 2.32926 27.7806 2.30615C28.5438 2.24828 29.3071 2.14407 30.0703 2.06303L31.5621 1.91833L32.6607 1.8257L31.9148 2.83288L28.9601 6.76913C28.8965 6.85596 28.8098 6.93121 28.7346 7.00646L17.1589 18.5893L3.70394 32.1056C3.57676 32.233 3.39171 32.3661 3.22402 32.3892C2.40873 32.4935 1.59344 32.5629 0.697266 32.6555L1.80742 31.1794L5.34603 26.4675L8.37006 22.4966L10.6192 19.4866L11.1685 18.763C11.209 18.7109 11.238 18.6009 11.209 18.5546L9.6652 15.7876L8.31219 13.397L7.56055 12.0598L7.54905 12.0714ZM38.6224 17.153L37.0207 18.7621L38.0789 12.1169L33.7076 13.6451C33.5515 13.2341 33.6498 12.9736 33.9447 12.6842L42.0165 4.60336C42.3692 4.2445 42.7451 4.15188 43.1903 4.10553L45.613 3.85082C45.9888 3.81033 46.3704 3.79295 46.7983 3.76398L45.8558 9.67404C45.8789 9.68563 45.8963 9.69721 45.9194 9.7088L47.4574 8.15171C47.4806 8.16323 47.5095 8.17482 47.5326 8.1864L47.3707 9.4194L46.9949 11.6538L46.5381 14.3975L46.1969 16.6725L45.7575 19.3236L45.4048 21.6274L45.0578 23.8329C44.9596 24.4523 44.8671 25.0716 44.7399 25.6795C44.6994 25.8878 44.6126 26.1251 44.4681 26.2698L40.7502 30.0208C40.4669 30.3103 40.1778 30.4955 39.7846 30.5245L38.2292 30.6576L36.5755 30.837L38.7438 17.2224C38.7091 17.1992 38.6745 17.1702 38.6397 17.1471L38.6224 17.153ZM26.6749 10.2463L26.4667 10.5415L23.7318 14.194L20.3666 18.6744L19.4877 19.8379C19.4415 19.9073 19.4357 20.0579 19.482 20.1331C19.8289 20.7814 20.1931 21.4181 20.5459 22.0492L22.7488 19.8437L26.2586 26.049C26.2066 26.1069 26.1429 26.1822 26.0735 26.2516L21.0084 31.3166C20.6499 31.6755 20.5285 31.6581 20.303 31.2066L17.7936 26.2574C17.6838 26.049 17.5565 25.8464 17.4293 25.6381L15.2437 27.8319L14.2723 25.8985L12.3411 28.6307L8.90652 33.4526C8.60587 33.8751 8.29364 34.2861 8.02764 34.7318C7.81951 35.0734 7.48414 35.0387 7.18348 35.0792C6.16006 35.2066 5.13657 35.3107 4.11315 35.4091L1.84082 35.6117C1.65577 35.6291 1.47079 35.6638 1.28574 35.6869L1.23373 35.6002L26.7617 10.3388L26.675 10.2347L26.6749 10.2463ZM58.4364 30.4558L75.3028 13.5764V14.1263C75.1989 16.4822 74.7882 18.7802 73.9034 20.9741C73.2675 22.5486 72.4231 24.0131 71.3536 25.3445C70.307 26.6469 69.0812 27.7409 67.6704 28.615C66.3174 29.4543 64.843 30.01 63.2818 30.3458C61.9982 30.6237 60.703 30.6063 59.4078 30.5947C59.0898 30.5947 58.766 30.5079 58.4364 30.4616V30.4558ZM35.0363 10.4734L34.3251 4.95105L35.655 4.43583L41.6452 2.14937C42.5646 1.79624 43.2527 1.62844 43.8366 1.66892L35.0421 10.4676L35.0363 10.4734ZM24.6767 29.0723L27.2612 33.6395L23.1848 34.0331L19.2819 34.4614L24.6767 29.0665V29.0723ZM42.9013 28.5403L42.2827 32.4359L38.6399 32.8123L42.9071 28.546L42.9013 28.5403ZM4.37357 7.20861L3.61037 5.8367L5.98101 5.59358L4.36779 7.20281L4.37357 7.20861ZM0.697266 43.8893H1.43495C1.53229 43.7292 1.62447 43.522 1.71162 43.2677C1.80387 43.0134 1.87554 42.6862 1.92679 42.2859C1.98313 41.8857 2.0113 41.3842 2.0113 40.7814V39.3688H7.67455V44.2424H0.697266V43.8893ZM8.02032 45.302V44.2424H7.21346V43.8893H8.44299V45.302H8.02032ZM7.21346 39.722H2.4339V40.7814C2.4339 41.3842 2.40831 41.8857 2.35706 42.2859C2.31098 42.6862 2.24948 43.0134 2.17264 43.2677C2.09581 43.522 2.01381 43.7292 1.92672 43.8893H7.21346V39.722ZM0.697266 45.302V43.8893H1.11987V45.302H0.697266ZM10.8765 39.3688H15.1642C15.7124 39.3688 16.1274 39.47 16.4091 39.6725C16.6909 39.875 16.8317 40.174 16.8317 40.5695C16.8317 40.8097 16.778 41.0192 16.6704 41.1981C16.5679 41.3771 16.4117 41.516 16.2016 41.6149C15.9967 41.7138 15.7432 41.7633 15.4409 41.7633V41.6714C15.7534 41.6714 16.03 41.7138 16.2708 41.7986C16.5115 41.8786 16.6985 42.0081 16.8317 42.187C16.9701 42.3613 17.0392 42.5897 17.0392 42.8722C17.0392 43.3007 16.8984 43.6374 16.6166 43.8823C16.3399 44.1224 15.9378 44.2424 15.4102 44.2424H10.8765V39.3688ZM16.3707 40.6401V40.4989C16.3707 40.2446 16.2836 40.0516 16.1094 39.9197C15.9404 39.7878 15.6458 39.722 15.2257 39.722H11.3375V41.5796H15.2257C15.6458 41.5796 15.9404 41.4972 16.1094 41.3324C16.2836 41.1628 16.3707 40.9321 16.3707 40.6401ZM16.5782 42.9428V42.7945C16.5782 42.5308 16.4731 42.3213 16.2631 42.1658C16.0531 42.0104 15.738 41.9327 15.3179 41.9327H11.3375V43.8893H15.3179C15.738 43.8893 16.0531 43.8116 16.2631 43.6562C16.4731 43.4961 16.5782 43.2583 16.5782 42.9428ZM25.4142 39.9929L20.1812 44.2424H19.6587V39.3688H20.1197V43.5342L25.4142 39.3688H25.9367V44.2424H25.4756L25.4142 39.9929ZM32.5955 41.735L29.1376 39.3688H29.8369L33.2948 41.735H32.5955ZM32.7108 41.6503L33.2948 41.735L29.76 44.2424H29.0607L32.7108 41.6503ZM34.2016 39.3688H34.6626V44.2424H34.2016V39.3688ZM32.68 41.9257V41.5725H36.1994V41.9257H32.68ZM39.0503 39.3688H39.7034L36.2455 41.735H35.5924L39.0503 39.3688ZM35.5924 41.735L36.1917 41.6503L39.8417 44.2424H39.1271L35.5924 41.735ZM43.1193 39.3688H48.7903V39.722H43.5804V41.5796H47.6222V41.9327H43.5804V43.8893H48.821V44.2424H43.1193V39.3688ZM51.2562 39.3688H51.7173V41.4737H56.9963V39.3688H57.4573V44.2424H56.9963V41.8268H51.7173V44.2424H51.2562V39.3688ZM66.0482 40.0473L60.9137 44.2424H60.3911V39.3688H60.8522V43.5342L66.1466 39.3688H66.6691V44.2424H66.2081L66.0482 40.0473ZM69.6011 39.3688H75.2721V39.722H70.0623V41.5796H74.1042V41.9327H70.0623V43.8893H75.3028V44.2424H69.6011V39.3688Z" fill="white"/>
<path d="M0.697266 43.8893H1.43495C1.53229 43.7292 1.62447 43.522 1.71162 43.2677C1.80387 43.0134 1.87554 42.6862 1.92679 42.2859C1.98313 41.8857 2.0113 41.3842 2.0113 40.7814V39.3687H7.67455V44.2424H0.697266V43.8893ZM0.697266 43.8893V45.302H1.11987V43.8893H0.697266ZM7.21346 43.8893V44.2424H8.02032V45.302H8.44299V43.8893H7.21346ZM7.21346 43.8893H1.92672C2.01381 43.7292 2.09581 43.522 2.17264 43.2677C2.24948 43.0134 2.31098 42.6862 2.35706 42.2859C2.40831 41.8857 2.4339 41.3842 2.4339 40.7814V39.7219H7.21346V43.8893ZM33.2948 41.735L29.8369 39.3687H29.1376L32.5955 41.735H33.2948ZM33.2948 41.735L32.7108 41.6502L29.0607 44.2424H29.76L33.2948 41.735ZM35.5924 41.735H36.2455L39.7034 39.3687H39.0503L35.5924 41.735ZM35.5924 41.735L36.1917 41.6502L39.8417 44.2424H39.1271L35.5924 41.735ZM10.8765 39.3687H15.1642C15.7124 39.3687 16.1274 39.47 16.4091 39.6725C16.6909 39.875 16.8317 40.174 16.8317 40.5695C16.8317 40.8097 16.778 41.0192 16.6704 41.1981C16.5679 41.3771 16.4117 41.516 16.2016 41.6149C15.9967 41.7138 15.7432 41.7633 15.4409 41.7633V41.6714C15.7534 41.6714 16.03 41.7138 16.2708 41.7986C16.5115 41.8786 16.6985 42.0081 16.8317 42.187C16.9701 42.3613 17.0392 42.5897 17.0392 42.8721C17.0392 43.3007 16.8984 43.6374 16.6166 43.8823C16.3399 44.1224 15.9378 44.2424 15.4102 44.2424H10.8765V39.3687ZM16.3707 40.6401V40.4989C16.3707 40.2446 16.2836 40.0516 16.1094 39.9197C15.9404 39.7878 15.6458 39.7219 15.2257 39.7219H11.3375V41.5796H15.2257C15.6458 41.5796 15.9404 41.4972 16.1094 41.3324C16.2836 41.1628 16.3707 40.9321 16.3707 40.6401ZM16.5782 42.9428V42.7945C16.5782 42.5308 16.4731 42.3213 16.2631 42.1658C16.0531 42.0104 15.738 41.9327 15.3179 41.9327H11.3375V43.8893H15.3179C15.738 43.8893 16.0531 43.8116 16.2631 43.6562C16.4731 43.4961 16.5782 43.2583 16.5782 42.9428ZM25.4142 39.9928L20.1812 44.2424H19.6587V39.3687H20.1197V43.5342L25.4142 39.3687H25.9367V44.2424H25.4756L25.4142 39.9928ZM34.2016 39.3687H34.6626V44.2424H34.2016V39.3687ZM32.68 41.9257V41.5725H36.1994V41.9257H32.68ZM43.1193 39.3687H48.7903V39.7219H43.5804V41.5796H47.6222V41.9327H43.5804V43.8893H48.821V44.2424H43.1193V39.3687ZM51.2562 39.3687H51.7173V41.4736H56.9963V39.3687H57.4573V44.2424H56.9963V41.8268H51.7173V44.2424H51.2562V39.3687ZM66.0482 40.0473L60.9137 44.2424H60.3911V39.3687H60.8522V43.5342L66.1466 39.3687H66.6691V44.2424H66.2081L66.0482 40.0473ZM69.6011 39.3687H75.2721V39.7219H70.0623V41.5796H74.1042V41.9327H70.0623V43.8893H75.3028V44.2424H69.6011V39.3687Z" stroke="white"/>
</g>
<defs>
<clipPath id="clip0_42_40">
<rect width="76" height="46" fill="white"/>
</clipPath>
</defs>
</svg>
